<svg id="pin" xmlns="http://www.w3.org/2000/svg" width="36" height="36" viewBox="0 0 503.125 503.125"><path d="M381.031 133.061L319.825 411.59c-.496 32.084-17.342 60.231-42.533 76.568a107.661 107.661 0 01-5.355 3.948 12.76 12.76 0 01-5.77 2.169c-11.969 5.615-25.259 8.85-39.321 8.85-51.291 0-92.997-41.719-92.997-93V157.829c-7.223-4.578-12.058-12.59-12.058-21.778v-31.002C121.791 47.127 168.911 0 226.846 0c57.917 0 105.043 47.127 105.043 105.049v31.002c0 14.266-11.567 25.833-25.836 25.833-14.264 0-25.83-11.561-25.83-25.833v-31.002c0-29.433-22.745-54.426-60.926-50.938l-.204.479c-29.285 27.896 0 65.736 0 65.736 0 25.446-20.628 46.075-46.075 46.075-4.661 0-9.12-.783-13.34-2.083v245.809c0 37.03 30.124 67.17 67.167 67.17 12.741 0 24.627-3.636 34.793-9.824 17.514-13.867 27.615-33.124 27.095-52.559-.508-18.844-10.816-35.388-29.039-46.564-21.737-13.323-52.358-7.625-71.381 4.936-5.949 3.918-13.961 2.287-17.889-3.659-3.931-5.952-2.291-13.974 3.662-17.897 25.038-16.521 66.73-25.275 99.115-5.402 11.939 7.329 21.557 16.656 28.525 27.295l54.083-246.109c1.531-6.96 8.418-11.372 15.387-9.841 6.969 1.526 11.366 8.422 9.835 15.388z" data-original="#000000" xmlns="http://www.w3.org/2000/svg"/></svg>